{"glyphs":{":":{"x_min":0,"x_max":317,"ha":317,"o":"m 111 400 l 111 502 l 209 502 l 209 400 z m 111 0 l 111 102 l 209 102 l 209 0 z"},"$":{"x_min":0,"x_max":586,"ha":586,"o":"m 328 -16 l 328 -68 l 259 -68 l 259 -16 q 219 -14 182 -2 q 144 11 116 34 q 87 58 70 92 q 53 126 54 172 l 55 190 l 144 190 q 141 160 150 138 q 158 115 174 99 q 190 83 212 74 q 235 66 259 63 l 259 314 q 227 326 192 340 q 158 355 130 376 q 101 398 84 430 q 67 462 67 511 q 67 549 83 584 q 99 619 126 646 q 152 672 186 689 q 221 706 259 708 l 259 755 l 328 755 l 328 708 q 366 706 400 692 q 435 679 462 655 q 489 631 506 596 q 524 561 527 518 l 438 518 q 438 545 429 565 q 420 585 405 599 q 390 613 370 621 q 350 629 328 631 l 328 380 q 366 369 404 354 q 441 340 471 318 q 501 295 520 261 q 538 227 538 178 q 538 133 520 98 q 503 62 474 37 q 445 12 407 -2 q 369 -15 328 -16 z m 259 630 q 215 625 186 592 q 156 558 156 512 q 156 489 164 472 q 173 454 187 440 q 201 427 220 418 q 238 408 259 401 z m 407 259 q 390 272 369 280 q 348 288 328 296 l 328 63 q 352 66 374 76 q 396 85 412 100 q 429 115 439 135 q 449 155 449 180 q 449 209 438 228 q 426 246 407 259 z"},"?":{"x_min":0,"x_max":530,"ha":530,"o":"m 260 185 l 181 185 l 181 318 q 181 345 194 366 q 208 388 228 406 q 248 425 272 442 q 296 459 316 476 q 336 493 350 512 q 363 530 363 553 q 363 583 354 603 q 344 623 327 636 q 310 648 287 654 q 264 659 237 659 q 202 659 172 646 q 142 633 125 600 q 120 592 117 582 q 114 572 114 564 l 26 564 q 27 580 31 596 q 35 612 41 626 q 54 657 75 678 q 96 700 122 713 q 148 726 178 732 q 209 737 241 737 q 284 737 322 726 q 360 714 388 692 q 415 669 431 634 q 447 599 447 553 q 447 516 433 490 q 419 463 398 442 q 378 421 354 404 q 329 387 308 369 q 288 351 274 330 q 260 310 260 283 z m 171 0 l 171 103 l 270 103 l 270 0 z"},"<":{"x_min":0,"x_max":693,"ha":693,"o":"m 95 220 l 95 283 l 605 506 l 605 424 l 206 251 l 605 67 l 605 -16 z"},"'":{"x_min":0,"x_max":319,"ha":319,"o":"m 125 496 l 125 722 l 196 722 l 196 496 z"},"=":{"x_min":0,"x_max":693,"ha":693,"o":"m 95 304 l 95 378 l 605 378 l 605 304 z m 95 124 l 95 198 l 605 198 l 605 124 z"},"a":{"x_min":0,"x_max":531,"ha":531,"o":"m 369 235 l 294 235 q 268 235 239 232 q 210 228 186 218 q 162 208 146 190 q 131 172 131 144 q 131 103 156 80 q 180 57 221 57 q 246 57 272 64 q 299 72 320 86 q 342 100 356 120 q 369 141 369 168 z m 65 347 q 68 387 84 419 q 100 451 126 472 q 151 494 184 506 q 217 517 254 517 q 296 517 332 508 q 367 498 392 478 q 418 457 432 424 q 447 392 447 347 l 447 -1 l 370 -1 l 370 48 q 344 16 302 0 q 261 -15 221 -15 q 185 -15 154 -4 q 122 7 98 27 q 74 47 60 76 q 47 106 47 144 q 47 194 68 224 q 90 255 124 272 q 158 289 198 295 q 238 301 276 301 q 299 301 322 300 q 346 300 369 300 q 369 335 366 362 q 363 389 352 408 q 341 426 318 436 q 294 445 253 445 q 208 445 180 420 q 152 396 148 347 z"},"L":{"x_min":0,"x_max":589,"ha":589,"o":"m 118 0 l 118 722 l 197 722 l 197 73 l 552 73 l 552 0 z"},"3":{"x_min":0,"x_max":586,"ha":586,"o":"m 283 -15 q 236 -15 194 -2 q 152 11 120 38 q 88 64 69 104 q 50 144 49 197 l 138 197 q 138 165 150 140 q 162 116 182 98 q 202 81 228 72 q 254 63 282 63 q 348 63 392 97 q 436 131 436 197 q 436 234 420 258 q 403 282 376 296 q 348 309 312 314 q 276 320 238 320 l 238 401 q 275 401 308 406 q 342 411 368 424 q 394 437 410 460 q 425 482 425 517 q 425 544 414 565 q 402 586 382 600 q 363 615 338 622 q 313 629 286 629 q 227 629 190 600 q 154 570 147 507 l 59 507 q 59 555 78 592 q 96 629 126 654 q 156 680 196 694 q 235 707 277 707 q 322 707 364 696 q 407 685 440 661 q 474 637 494 600 q 514 564 514 513 q 514 458 482 418 q 450 378 401 360 q 457 340 491 296 q 525 252 525 189 q 525 140 504 102 q 483 64 449 38 q 415 12 372 -2 q 328 -15 283 -15 z"},";":{"x_min":0,"x_max":315,"ha":315,"o":"m 117 399 l 117 502 l 216 502 l 216 399 z m 157 -124 l 87 -124 l 133 94 l 235 94 z"},"J":{"x_min":0,"x_max":530,"ha":530,"o":"m 215 -15 q 171 -15 138 1 q 104 17 80 44 q 57 72 44 110 q 30 147 25 189 l 108 189 q 113 130 148 94 q 182 59 236 59 q 268 59 290 74 q 313 90 327 114 q 341 139 347 169 q 353 199 353 228 l 353 722 l 431 722 l 431 237 q 431 185 419 140 q 407 94 382 60 q 356 25 314 5 q 273 -15 215 -15 z"},"V":{"x_min":0,"x_max":636,"ha":636,"o":"m 326 100 l 544 722 l 629 722 l 366 0 l 279 0 l 13 722 l 104 722 z"},"\"":{"x_min":0,"x_max":312,"ha":312,"o":"m 186 496 l 186 722 l 257 722 l 257 496 z m 58 496 l 58 722 l 129 722 l 129 496 z"},"7":{"x_min":0,"x_max":587,"ha":587,"o":"m 249 0 l 153 0 l 424 613 l 64 614 l 64 692 l 516 692 l 516 621 l 402 355 q 379 302 356 248 q 333 195 312 147 q 292 99 275 60 q 258 22 249 0 z"},"S":{"x_min":0,"x_max":646,"ha":646,"o":"m 339 -15 q 286 -15 239 -4 q 192 8 156 34 q 120 59 98 100 q 77 140 76 199 l 160 199 q 161 158 175 131 q 189 104 213 87 q 237 70 268 63 q 300 56 336 56 q 370 56 399 62 q 428 69 449 84 q 470 99 482 124 q 493 149 493 187 q 493 233 464 260 q 434 286 390 304 q 345 323 293 338 q 241 353 196 377 q 152 401 122 439 q 93 477 93 540 q 93 590 112 627 q 130 664 162 688 q 193 713 234 725 q 276 737 322 737 q 367 737 410 728 q 452 719 486 698 q 519 676 539 641 q 559 606 559 554 l 480 554 q 479 588 466 610 q 452 631 430 644 q 409 657 382 662 q 354 667 325 667 q 296 667 270 660 q 243 654 222 640 q 202 626 190 603 q 177 580 177 547 q 177 511 194 486 q 211 462 239 444 q 267 427 303 414 q 339 401 376 388 q 414 375 450 360 q 486 344 514 322 q 542 299 559 266 q 576 234 576 187 q 576 131 558 92 q 540 54 508 30 q 476 6 432 -4 q 389 -15 339 -15 z"},"}":{"x_min":0,"x_max":309,"ha":309,"o":"m 194 161 l 194 20 q 194 2 188 -18 q 181 -39 169 -56 q 157 -74 139 -85 q 121 -96 98 -96 l 39 -96 l 39 -28 l 81 -28 q 82 -27 84 -26 l 90 -23 q 103 -15 107 1 q 111 17 111 36 l 111 175 q 111 210 122 243 q 132 276 157 302 q 160 305 162 308 q 165 311 169 313 q 154 325 143 342 q 132 359 125 378 q 118 396 114 415 q 111 434 111 452 l 111 590 q 111 609 107 625 q 103 641 90 649 l 84 652 q 82 653 81 654 l 39 654 l 39 722 l 98 722 q 104 722 112 720 q 121 717 124 715 q 159 701 176 671 q 194 641 194 606 l 194 466 q 194 444 196 424 q 197 404 204 388 q 211 373 225 362 q 239 352 265 349 l 265 278 q 240 275 226 264 q 211 254 204 238 q 197 222 196 202 q 194 183 194 161 z"},"Z":{"x_min":0,"x_max":585,"ha":585,"o":"m 51 0 l 51 71 l 436 644 l 51 644 l 51 722 l 540 722 l 540 651 l 154 78 l 540 78 l 540 0 z"},"x":{"x_min":0,"x_max":527,"ha":527,"o":"m 412 0 l 259 203 l 110 0 l 16 0 q 53 41 78 73 q 104 105 127 137 q 150 167 172 197 q 193 227 216 257 l 27 502 l 130 502 l 269 315 l 412 502 l 499 502 l 315 259 l 514 0 z"},")":{"x_min":0,"x_max":312,"ha":312,"o":"m 118 -96 l 43 -96 q 70 -58 91 0 q 109 50 124 127 q 140 204 140 313 q 140 428 124 506 q 109 584 90 632 q 68 688 40 722 l 117 722 q 118 720 136 694 q 154 669 174 618 q 194 567 211 491 q 228 415 228 313 q 228 213 212 138 q 195 62 174 10 q 154 -41 136 -68 q 119 -94 118 -96 z"},"&":{"x_min":0,"x_max":747,"ha":747,"o":"m 634 0 l 509 139 q 498 125 489 111 q 480 97 470 84 q 459 69 448 56 q 436 43 423 32 q 396 9 362 -3 q 328 -15 277 -15 q 237 -15 200 0 q 163 16 134 43 q 106 70 88 106 q 71 142 71 183 q 71 224 86 259 q 101 294 126 324 q 150 353 180 378 q 210 402 240 422 q 225 440 210 458 q 194 477 182 496 q 169 516 161 538 q 153 560 153 585 q 153 618 167 646 q 181 674 204 694 q 227 714 256 726 q 286 737 318 737 q 349 737 379 726 q 409 715 432 695 q 456 675 470 647 q 485 619 485 585 q 485 537 458 503 q 432 469 397 442 q 388 435 379 428 q 370 422 361 416 l 499 267 l 588 417 l 684 417 l 553 209 l 753 0 z m 316 659 q 285 659 263 638 q 241 616 241 585 q 241 568 248 552 q 254 537 264 523 q 273 509 285 496 q 297 484 308 472 q 319 481 330 489 q 341 497 352 506 q 372 522 384 539 q 397 556 397 585 q 397 600 390 614 q 383 627 372 637 q 360 647 346 653 q 331 659 316 659 z m 294 368 q 270 351 246 332 q 221 312 202 289 q 183 266 171 240 q 159 214 159 184 q 159 159 170 137 q 180 115 198 98 q 215 82 238 72 q 261 62 285 62 q 309 62 329 70 q 349 78 366 91 q 384 104 398 120 q 413 137 426 154 q 434 165 441 176 q 448 186 456 197 z"},"_":{"x_min":0,"x_max":525,"ha":525,"o":"m 20 -134 l 20 -58 l 510 -58 l 510 -134 z"},"v":{"x_min":0,"x_max":527,"ha":527,"o":"m 309 0 l 229 0 l 20 502 l 106 502 l 269 115 l 426 502 l 512 502 z"},"O":{"x_min":0,"x_max":809,"ha":809,"o":"m 408 -15 q 324 -15 264 16 q 203 46 163 98 q 123 149 104 218 q 85 286 85 361 q 85 436 104 504 q 123 573 163 624 q 203 676 264 706 q 324 737 408 737 q 492 737 553 706 q 614 676 654 624 q 693 573 712 504 q 731 436 731 361 q 731 286 712 218 q 693 149 654 98 q 614 46 553 16 q 492 -15 408 -15 z m 408 663 q 345 663 300 638 q 255 612 226 570 q 196 527 182 472 q 169 418 169 361 q 169 304 182 250 q 196 195 226 152 q 255 110 300 84 q 345 59 408 59 q 471 59 516 84 q 562 110 592 152 q 621 195 634 250 q 648 304 648 361 q 648 418 634 472 q 621 527 592 570 q 562 612 516 638 q 471 663 408 663 z"},"(":{"x_min":0,"x_max":313,"ha":313,"o":"m 197 -96 q 195 -94 178 -68 q 161 -41 140 10 q 120 62 104 138 q 87 213 87 313 q 87 415 104 491 q 121 567 141 618 q 161 669 178 694 q 196 720 198 722 l 275 722 q 247 688 225 632 q 206 584 191 506 q 176 428 176 313 q 176 204 191 127 q 206 50 224 0 q 245 -58 273 -96 z"},"C":{"x_min":0,"x_max":697,"ha":697,"o":"m 390 -15 q 307 -15 248 16 q 189 48 152 100 q 114 153 96 220 q 78 288 78 361 q 78 433 96 500 q 114 568 152 620 q 190 673 249 705 q 308 737 390 737 q 433 737 475 726 q 517 715 551 691 q 585 667 608 630 q 630 593 634 542 l 550 542 q 546 574 531 597 q 516 620 494 634 q 473 649 446 656 q 419 663 390 663 q 327 663 284 637 q 240 611 213 568 q 186 526 174 472 q 162 417 162 361 q 162 305 174 250 q 186 196 213 154 q 240 111 284 85 q 327 59 390 59 q 419 59 446 66 q 473 73 494 88 q 516 102 531 125 q 546 148 550 180 l 634 180 q 630 129 608 92 q 585 55 551 31 q 517 7 475 -4 q 433 -15 390 -15 z"},"W":{"x_min":0,"x_max":1012,"ha":1012,"o":"m 809 0 l 704 0 l 506 623 l 308 0 l 203 0 l 13 722 l 102 722 l 261 104 l 457 714 l 457 722 l 464 722 l 467 722 l 545 722 l 548 722 l 555 722 l 555 714 l 752 104 l 910 722 l 999 722 z"},"A":{"x_min":0,"x_max":692,"ha":692,"o":"m 594 0 l 518 191 l 177 191 l 102 0 l 20 0 l 307 722 l 391 722 l 679 0 z m 348 635 l 203 265 l 490 265 z"},"f":{"x_min":0,"x_max":363,"ha":363,"o":"m 209 577 l 209 502 l 321 502 l 321 435 l 209 435 l 209 0 l 130 0 l 130 435 l 31 435 l 31 502 l 130 502 q 130 519 130 538 q 129 558 129 575 q 129 595 130 614 q 132 633 137 651 q 147 687 174 710 q 202 734 259 734 q 274 734 292 730 q 309 726 325 719 l 325 655 q 263 670 236 650 q 209 631 209 577 z"},"Q":{"x_min":0,"x_max":807,"ha":807,"o":"m 644 85 l 729 0 l 625 0 l 589 36 q 553 12 508 -2 q 463 -15 409 -15 q 325 -15 264 16 q 203 46 164 98 q 124 149 105 218 q 86 286 86 361 q 86 436 105 504 q 124 573 164 624 q 203 676 264 706 q 325 737 409 737 q 493 737 554 706 q 614 676 654 624 q 694 573 713 504 q 732 436 732 361 q 732 280 710 209 q 689 138 644 85 z m 409 663 q 346 663 300 638 q 255 612 226 570 q 196 527 182 472 q 169 418 169 361 q 169 304 182 250 q 196 195 226 152 q 255 110 300 84 q 346 59 409 59 q 481 59 532 93 l 423 201 l 528 201 l 585 144 q 617 187 632 244 q 648 301 648 361 q 648 418 634 472 q 621 527 592 570 q 562 612 517 638 q 472 663 409 663 z"},"w":{"x_min":0,"x_max":857,"ha":857,"o":"m 619 116 l 754 502 l 841 502 l 650 0 l 580 0 l 435 400 l 288 0 l 214 0 l 26 502 l 112 502 l 253 112 l 396 502 l 480 502 z"},"-":{"x_min":0,"x_max":307,"ha":307,"o":"m 30 227 l 30 307 l 277 307 l 277 227 z"},"E":{"x_min":0,"x_max":646,"ha":646,"o":"m 120 0 l 120 722 l 556 722 l 556 649 l 199 649 l 199 409 l 542 409 l 542 336 l 199 336 l 199 73 l 570 73 l 570 0 z"},"s":{"x_min":0,"x_max":517,"ha":517,"o":"m 381 347 q 377 399 345 424 q 313 448 260 448 q 243 448 225 445 q 207 442 192 434 q 177 425 168 411 q 158 397 158 376 q 158 349 181 335 q 204 321 238 312 q 273 302 314 292 q 354 283 388 267 q 423 251 446 224 q 469 196 469 149 q 469 103 452 72 q 435 40 406 21 q 377 2 340 -6 q 302 -15 262 -15 q 218 -15 181 -4 q 144 6 116 28 q 89 50 72 82 q 56 115 54 160 l 137 160 q 142 100 180 76 q 218 53 277 53 q 298 53 318 58 q 337 63 352 74 q 367 84 376 100 q 385 117 385 140 q 385 172 362 188 q 339 205 304 215 q 270 225 230 233 q 189 241 154 256 q 120 272 97 298 q 74 325 74 372 q 74 411 91 438 q 108 466 136 484 q 163 501 196 509 q 230 517 263 517 q 348 517 402 474 q 455 432 459 347 z"},">":{"x_min":0,"x_max":693,"ha":693,"o":"m 95 -4 l 95 78 l 494 251 l 95 435 l 95 518 l 605 282 l 605 219 z"},"l":{"x_min":0,"x_max":260,"ha":260,"o":"m 92 0 l 92 722 l 170 722 l 170 0 z"},"8":{"x_min":0,"x_max":586,"ha":586,"o":"m 412 360 q 466 340 501 298 q 536 255 536 192 q 536 141 516 102 q 496 64 463 38 q 430 12 386 -2 q 343 -15 296 -15 q 249 -15 206 -2 q 162 12 129 38 q 96 64 76 102 q 56 141 56 192 q 56 253 90 296 q 123 339 177 359 q 152 367 132 383 q 111 399 96 420 q 81 441 73 466 q 65 490 65 516 q 65 564 85 600 q 105 635 138 659 q 170 683 212 695 q 253 707 296 707 q 339 707 380 695 q 421 683 454 659 q 486 635 506 600 q 526 564 526 516 q 526 460 494 420 q 462 379 412 360 z m 296 634 q 267 634 240 626 q 213 619 193 604 q 173 590 161 568 q 149 546 149 516 q 149 486 160 464 q 172 442 192 428 q 213 413 240 406 q 266 400 296 400 q 326 400 352 406 q 379 413 400 428 q 420 442 432 464 q 443 486 443 516 q 443 546 431 568 q 419 590 398 604 q 378 619 352 626 q 325 634 296 634 z m 296 322 q 264 322 236 314 q 209 305 188 288 q 168 272 156 248 q 144 224 144 192 q 144 160 156 136 q 168 112 188 96 q 209 79 236 71 q 264 63 296 63 q 327 63 355 71 q 383 79 404 96 q 424 112 436 136 q 448 160 448 192 q 448 224 436 248 q 424 272 404 288 q 383 305 355 314 q 327 322 296 322 z"},"\\":{"x_min":0,"x_max":300,"ha":300,"o":"m 261 0 l -43 722 l 43 722 l 347 0 z"},"e":{"x_min":0,"x_max":587,"ha":587,"o":"m 293 445 q 263 445 238 433 q 213 421 195 401 q 177 381 166 355 q 154 329 150 300 l 442 300 q 439 331 428 358 q 416 384 397 404 q 378 423 352 434 q 326 445 293 445 z m 288 -15 q 233 -15 190 8 q 148 32 120 70 q 91 107 76 154 q 62 202 62 249 q 62 297 77 345 q 92 393 121 432 q 150 470 193 494 q 236 517 292 517 q 354 517 398 494 q 443 471 472 432 q 500 394 514 344 q 527 295 527 242 l 527 228 l 147 228 q 148 192 159 161 q 170 130 190 107 q 211 84 240 70 q 269 57 307 57 q 351 57 386 86 q 422 115 437 160 l 520 160 q 495 72 434 28 q 373 -15 288 -15 z"},"b":{"x_min":0,"x_max":588,"ha":588,"o":"m 163 452 q 192 487 235 504 q 278 522 323 522 q 381 522 422 498 q 462 475 487 437 q 512 399 524 352 q 535 304 535 256 q 535 209 524 161 q 513 113 488 74 q 463 35 423 10 q 383 -15 326 -15 q 226 -15 163 59 l 163 0 l 84 0 l 84 722 l 163 722 z m 311 449 q 272 449 244 434 q 216 418 198 392 q 180 367 172 334 q 163 300 163 263 q 163 222 170 185 q 178 148 196 120 q 215 91 245 74 q 275 58 320 58 q 359 58 384 77 q 409 96 424 125 q 439 154 445 190 q 451 226 451 261 q 451 296 444 330 q 436 363 420 390 q 403 416 376 432 q 349 449 311 449 z"},"%":{"x_min":0,"x_max":1035,"ha":1035,"o":"m 741 -15 q 700 -15 669 2 q 638 19 617 46 q 596 74 586 108 q 575 143 575 179 q 575 214 586 248 q 596 283 617 310 q 638 338 669 355 q 700 372 741 372 q 782 372 813 355 q 844 338 865 310 q 886 283 896 248 q 907 214 907 179 q 907 143 896 108 q 886 74 865 46 q 844 19 813 2 q 782 -15 741 -15 z m 353 0 l 273 0 l 666 707 l 746 707 z m 304 320 q 263 320 232 337 q 201 354 180 382 q 159 409 148 444 q 138 478 138 513 q 138 549 148 584 q 159 618 180 646 q 201 673 232 690 q 263 707 304 707 q 345 707 376 690 q 407 673 428 646 q 449 618 460 584 q 470 549 470 513 q 470 478 460 444 q 449 409 428 382 q 407 354 376 337 q 345 320 304 320 z m 741 309 q 717 309 700 298 q 682 286 670 268 q 659 249 654 226 q 649 202 649 179 q 649 155 654 132 q 659 109 670 90 q 682 71 700 60 q 717 48 741 48 q 765 48 782 60 q 800 71 812 90 q 823 109 828 132 q 833 155 833 179 q 833 202 828 226 q 823 249 812 268 q 800 286 782 298 q 765 309 741 309 z m 304 644 q 280 644 262 632 q 245 621 234 602 q 222 583 217 560 q 212 537 212 513 q 212 490 217 466 q 222 443 234 424 q 245 406 262 394 q 280 383 304 383 q 328 383 346 394 q 363 406 374 424 q 386 443 391 466 q 396 490 396 513 q 396 537 391 560 q 386 583 374 602 q 363 621 346 632 q 328 644 304 644 z"},"m":{"x_min":0,"x_max":920,"ha":920,"o":"m 175 451 q 201 485 238 501 q 276 517 321 517 q 373 517 416 494 q 458 471 481 426 q 505 471 552 494 q 598 517 650 517 q 700 517 735 501 q 770 485 792 457 q 814 429 824 392 q 834 354 834 312 l 834 0 l 755 0 l 755 322 q 755 379 725 412 q 695 445 636 445 q 603 445 578 432 q 553 420 537 398 q 521 376 513 348 q 505 319 505 288 l 505 0 l 426 0 l 426 322 q 426 379 396 412 q 366 445 306 445 q 273 445 248 432 q 223 420 207 398 q 191 376 183 348 q 175 319 175 288 l 175 0 l 96 0 l 96 503 l 175 503 z"},"#":{"x_min":0,"x_max":604,"ha":604,"o":"m 452 196 l 452 0 l 381 0 l 381 196 l 227 196 l 227 0 l 158 0 l 158 196 l 64 196 l 64 268 l 158 268 l 158 455 l 64 455 l 64 526 l 158 526 l 158 722 l 227 722 l 227 526 l 381 526 l 381 722 l 452 722 l 452 526 l 546 526 l 546 455 l 452 455 l 452 268 l 546 268 l 546 196 z m 381 455 l 227 455 l 227 268 l 381 268 z"},",":{"x_min":0,"x_max":314,"ha":314,"o":"m 137 -124 l 67 -124 l 113 81 l 214 81 z"},"n":{"x_min":0,"x_max":590,"ha":590,"o":"m 173 450 q 200 485 238 501 q 277 517 319 517 q 366 517 400 500 q 435 484 458 456 q 480 428 491 390 q 502 353 502 312 l 502 0 l 423 0 l 423 322 q 423 377 392 411 q 361 445 304 445 q 272 445 248 432 q 223 419 206 397 q 190 375 182 346 q 173 318 173 288 l 173 0 l 94 0 l 94 503 l 173 503 z"},"h":{"x_min":0,"x_max":590,"ha":590,"o":"m 173 454 q 199 487 237 505 q 275 523 319 523 q 368 523 402 506 q 437 490 459 462 q 481 434 492 396 q 502 358 502 315 l 502 0 l 423 0 l 423 325 q 423 383 393 416 q 363 450 304 450 q 271 450 246 437 q 222 424 206 402 q 189 380 181 351 q 173 322 173 291 l 173 0 l 94 0 l 94 722 l 173 722 z"},"z":{"x_min":0,"x_max":475,"ha":475,"o":"m 51 0 l 51 66 l 329 430 l 51 430 l 51 502 l 428 502 l 428 436 l 152 72 l 428 72 l 428 0 z"},"B":{"x_min":0,"x_max":659,"ha":659,"o":"m 457 381 q 537 367 576 316 q 614 265 614 196 q 614 143 595 106 q 576 69 544 46 q 511 22 468 11 q 426 0 380 0 l 119 0 l 119 722 l 331 722 q 376 722 416 712 q 457 702 488 680 q 519 657 537 621 q 555 585 555 534 q 555 512 548 489 q 542 466 530 446 q 517 425 499 408 q 481 391 457 381 z m 331 649 l 197 649 l 197 410 l 307 410 q 342 410 372 415 q 402 420 424 434 q 446 447 458 471 q 471 495 471 534 q 471 565 460 587 q 449 609 430 622 q 412 636 386 642 q 361 649 331 649 z m 307 337 l 197 337 l 197 73 l 341 73 q 374 73 408 78 q 442 83 469 96 q 496 110 513 134 q 530 158 530 196 q 530 245 511 274 q 492 302 460 316 q 429 330 389 334 q 349 337 307 337 z"},"K":{"x_min":0,"x_max":643,"ha":643,"o":"m 532 0 l 204 339 l 203 0 l 125 0 l 125 722 l 203 722 l 204 402 l 510 722 l 610 722 l 285 376 l 640 0 z"},"R":{"x_min":0,"x_max":682,"ha":682,"o":"m 555 0 l 386 307 l 198 307 l 198 0 l 119 0 l 119 722 l 314 722 q 369 722 420 716 q 472 709 512 688 q 552 666 576 625 q 600 584 600 515 q 600 441 564 394 q 529 348 462 327 l 643 0 z m 345 649 l 198 649 l 198 381 l 345 381 q 380 381 412 388 q 443 394 466 410 q 490 425 504 450 q 517 476 517 515 q 517 557 504 584 q 492 610 470 624 q 447 639 416 644 q 384 649 345 649 z"},"T":{"x_min":0,"x_max":582,"ha":582,"o":"m 338 644 l 337 0 l 255 0 l 254 644 l 25 644 l 25 722 l 563 722 l 563 644 z"},"P":{"x_min":0,"x_max":644,"ha":644,"o":"m 278 307 q 258 307 238 307 q 217 307 197 308 l 197 0 l 119 0 l 119 722 l 313 722 q 367 722 419 716 q 471 709 511 687 q 551 665 576 624 q 600 584 600 515 q 600 467 586 434 q 572 400 548 377 q 524 354 492 340 q 459 326 424 318 q 388 311 350 309 q 313 307 278 307 z m 345 649 l 197 649 l 197 381 l 345 381 q 380 381 411 388 q 442 394 466 410 q 489 425 502 450 q 516 476 516 515 q 516 557 504 583 q 491 609 468 624 q 446 639 414 644 q 383 649 345 649 z"},"|":{"x_min":0,"x_max":260,"ha":260,"o":"m 92 -250 l 92 750 l 170 750 l 170 -250 z"},"t":{"x_min":0,"x_max":353,"ha":353,"o":"m 209 435 l 209 0 l 130 0 l 130 435 l 32 435 l 32 502 l 130 502 l 130 635 l 209 635 l 209 502 l 321 502 l 321 435 z"},"M":{"x_min":0,"x_max":977,"ha":977,"o":"m 197 625 l 197 0 l 118 0 l 118 722 l 233 722 l 493 117 l 760 722 l 869 722 l 869 0 l 791 0 l 791 628 l 531 0 l 457 0 z"},"g":{"x_min":0,"x_max":587,"ha":587,"o":"m 431 446 l 431 502 l 510 502 l 510 4 q 510 -29 498 -64 q 486 -99 459 -128 q 432 -156 389 -174 q 346 -192 284 -192 q 252 -192 216 -186 q 181 -179 150 -162 q 119 -146 99 -116 q 79 -87 79 -41 l 161 -41 q 164 -65 178 -80 q 191 -96 210 -105 q 228 -114 250 -118 q 272 -122 292 -122 q 319 -122 344 -112 q 369 -103 388 -86 q 408 -69 420 -46 q 431 -22 431 6 l 431 67 q 404 32 363 14 q 322 -3 279 -3 q 220 -3 178 18 q 136 38 109 74 q 82 109 70 155 q 57 201 57 252 q 57 303 69 350 q 81 398 108 435 q 134 472 176 494 q 218 517 277 517 q 325 517 365 496 q 405 476 431 446 z m 283 444 q 247 444 220 428 q 193 411 176 384 q 158 358 150 324 q 141 291 141 257 q 141 223 150 190 q 159 156 177 130 q 195 103 222 86 q 249 70 285 70 q 324 70 352 86 q 379 102 397 128 q 415 155 423 189 q 431 223 431 259 q 431 293 422 326 q 412 359 394 386 q 375 412 347 428 q 319 444 283 444 z"},"j":{"x_min":0,"x_max":254,"ha":254,"o":"m 81 635 l 81 722 l 170 722 l 170 635 z m 165 -59 q 165 -89 160 -114 q 155 -138 142 -156 q 129 -173 106 -182 q 83 -192 47 -192 l 5 -192 l 5 -120 l 47 -120 q 74 -120 80 -104 q 87 -88 87 -59 q 87 -25 87 18 q 87 61 86 107 q 86 153 86 200 q 86 247 86 291 l 86 502 l 165 502 z"},"i":{"x_min":0,"x_max":259,"ha":259,"o":"m 86 636 l 86 722 l 175 722 l 175 636 z m 91 0 l 91 502 l 170 502 l 170 0 z"},"y":{"x_min":0,"x_max":527,"ha":527,"o":"m 229 -192 l 143 -192 l 222 4 l 14 502 l 107 502 l 266 111 l 423 502 l 509 502 z"},"@":{"x_min":0,"x_max":827,"ha":827,"o":"m 538 130 q 514 130 490 140 q 465 151 451 174 q 428 154 399 143 q 370 132 338 132 q 304 132 278 144 q 251 157 232 178 q 214 200 204 228 q 194 256 194 287 q 194 336 212 390 q 229 443 262 488 q 295 532 342 560 q 388 589 445 589 q 476 589 504 576 q 532 564 551 540 l 561 570 l 647 570 q 636 539 618 487 q 600 435 581 380 q 571 352 562 326 q 554 299 548 278 q 541 256 538 240 q 534 225 534 219 q 534 203 552 203 q 584 203 610 226 q 637 250 656 284 q 675 319 686 357 q 696 395 696 425 q 696 480 675 525 q 654 570 618 602 q 581 634 533 652 q 485 669 431 669 q 366 669 312 644 q 258 619 218 576 q 178 534 156 477 q 134 420 134 357 q 134 294 157 238 q 180 183 220 142 q 260 101 314 77 q 369 53 433 53 q 507 53 574 87 q 641 121 686 185 l 765 185 q 738 136 702 98 q 665 61 622 36 q 578 11 530 -2 q 482 -15 433 -15 q 354 -15 285 15 q 216 45 165 96 q 114 148 84 217 q 55 286 55 364 q 55 440 84 508 q 114 576 165 627 q 216 678 284 708 q 352 737 429 737 q 496 737 558 714 q 621 692 669 650 q 717 609 746 551 q 775 493 775 422 q 775 377 758 326 q 741 275 710 232 q 678 188 634 159 q 591 130 538 130 z m 447 511 q 411 511 382 490 q 353 468 332 435 q 311 402 300 364 q 288 325 288 292 q 288 260 304 235 q 321 210 353 210 q 384 210 412 236 q 439 263 460 301 q 480 339 492 380 q 504 422 504 452 q 504 477 488 494 q 472 511 447 511 z"},".":{"x_min":0,"x_max":317,"ha":317,"o":"m 111 0 l 111 86 l 209 86 l 209 0 z"},"p":{"x_min":0,"x_max":587,"ha":587,"o":"m 162 449 q 215 517 311 517 q 367 517 409 494 q 451 470 478 432 q 506 395 520 348 q 534 300 534 252 q 534 205 520 156 q 506 108 478 69 q 451 30 409 5 q 367 -20 311 -20 q 260 -20 225 -2 q 190 17 162 52 l 162 -192 l 83 -192 l 83 502 l 162 502 z m 311 444 q 272 444 244 427 q 215 410 196 382 q 177 355 168 320 q 158 285 158 249 q 158 213 168 178 q 177 143 196 115 q 215 87 244 70 q 272 53 311 53 q 348 53 374 72 q 401 90 418 118 q 435 147 444 182 q 452 217 452 251 q 452 284 444 318 q 435 353 418 381 q 401 409 374 426 q 347 444 311 444 z"},"X":{"x_min":0,"x_max":636,"ha":636,"o":"m 526 0 l 317 306 l 108 0 l 11 0 l 269 372 l 24 722 l 131 722 l 326 434 l 528 722 l 624 722 l 372 372 l 632 0 z"},"*":{"x_min":0,"x_max":591,"ha":591,"o":"m 331 531 l 426 408 l 355 372 l 296 511 l 234 370 l 166 408 l 262 530 l 115 512 l 115 588 l 262 569 l 163 688 l 234 726 l 296 588 l 358 726 l 427 689 l 331 569 l 476 588 l 476 512 z"},"Y":{"x_min":0,"x_max":636,"ha":636,"o":"m 364 312 l 364 0 l 280 0 l 280 310 l 12 722 l 117 722 l 328 391 l 539 722 l 631 722 z"},"c":{"x_min":0,"x_max":530,"ha":530,"o":"m 401 347 q 393 400 358 422 q 323 445 278 445 q 243 445 217 427 q 191 409 174 380 q 158 352 150 318 q 142 284 142 252 q 142 220 150 186 q 158 151 174 122 q 191 94 216 76 q 242 57 278 57 q 299 57 320 64 q 340 71 356 84 q 373 98 385 117 q 397 136 401 160 l 485 160 q 471 77 418 31 q 364 -15 284 -15 q 227 -15 185 8 q 143 32 114 70 q 86 108 72 156 q 58 203 58 251 q 58 298 72 346 q 87 393 116 431 q 144 469 186 493 q 229 517 284 517 q 321 517 356 506 q 390 495 418 474 q 445 452 463 420 q 481 388 485 347 z"},"!":{"x_min":0,"x_max":434,"ha":434,"o":"m 257 186 l 182 186 l 169 722 l 270 722 z m 170 0 l 170 103 l 269 103 l 269 0 z"},"/":{"x_min":0,"x_max":302,"ha":302,"o":"m 61 -96 l -22 -96 l 238 722 l 323 722 z"},"[":{"x_min":0,"x_max":314,"ha":314,"o":"m 97 -96 l 97 722 l 251 722 l 251 654 l 180 654 l 180 -28 l 251 -28 l 251 -96 z"},"6":{"x_min":0,"x_max":586,"ha":586,"o":"m 147 376 q 176 416 221 436 q 266 456 317 456 q 370 456 410 438 q 451 419 478 388 q 506 356 520 314 q 534 271 534 223 q 534 175 519 132 q 504 89 476 56 q 447 23 406 4 q 364 -15 311 -15 q 236 -15 188 14 q 139 43 110 90 q 81 136 70 194 q 58 253 58 312 q 58 353 62 398 q 65 443 74 487 q 84 531 101 571 q 118 611 146 641 q 173 671 212 689 q 251 707 305 707 q 347 707 386 693 q 424 679 452 654 q 481 629 498 594 q 515 558 515 515 l 431 515 q 431 565 400 597 q 370 629 308 629 q 260 629 230 606 q 199 583 181 546 q 163 510 156 465 q 148 420 147 376 z m 314 383 q 276 383 247 370 q 218 357 198 334 q 179 312 168 281 q 158 250 158 215 q 158 185 168 158 q 179 130 198 109 q 217 88 244 76 q 270 63 301 63 q 336 63 363 75 q 390 87 408 108 q 427 129 436 158 q 446 187 446 220 q 446 252 438 282 q 431 311 414 334 q 398 356 373 370 q 348 383 314 383 z"},"r":{"x_min":0,"x_max":358,"ha":358,"o":"m 171 461 q 188 485 213 501 q 238 517 270 517 q 287 517 305 513 q 323 509 343 497 l 343 414 l 328 414 q 302 436 274 439 q 247 442 224 431 q 201 420 186 398 q 171 375 171 347 l 171 0 l 92 0 l 92 503 l 171 503 z"},"2":{"x_min":0,"x_max":588,"ha":588,"o":"m 63 0 l 63 91 q 81 108 105 131 q 129 154 157 180 q 185 206 214 236 q 244 265 273 296 q 302 327 327 358 q 352 389 371 418 q 390 446 400 472 q 411 498 411 519 q 411 545 401 566 q 391 586 374 600 q 357 614 334 622 q 311 629 285 629 q 229 629 194 593 q 158 557 158 495 l 70 495 q 70 545 86 584 q 103 624 132 651 q 162 678 202 692 q 241 707 287 707 q 331 707 370 695 q 409 683 438 660 q 467 636 484 601 q 500 566 500 519 q 500 491 489 460 q 478 429 460 398 q 441 366 416 334 q 392 301 365 270 q 316 214 264 164 q 212 115 173 78 l 509 78 l 509 0 z"},"{":{"x_min":0,"x_max":309,"ha":309,"o":"m 214 -96 q 191 -96 173 -85 q 155 -74 143 -56 q 131 -39 124 -18 q 118 2 118 20 l 118 160 q 118 181 116 201 q 115 221 108 236 q 101 252 87 262 q 73 273 48 276 l 48 347 q 73 350 87 360 q 101 371 108 387 q 115 403 116 423 q 118 443 118 465 l 118 606 q 118 641 136 671 q 153 701 188 715 q 192 717 200 720 q 209 722 214 722 l 273 722 l 273 654 l 232 654 q 231 654 228 652 q 224 651 222 649 q 209 641 206 625 q 202 609 202 590 l 202 451 q 202 416 191 383 q 180 350 155 324 q 150 318 144 313 q 159 301 170 284 q 181 267 188 248 q 195 230 198 211 q 202 192 202 174 l 202 36 q 202 17 206 1 q 209 -15 222 -23 q 224 -25 228 -26 q 231 -28 232 -28 l 273 -28 l 273 -96 z"},"9":{"x_min":0,"x_max":586,"ha":586,"o":"m 446 316 q 417 276 372 256 q 327 236 276 236 q 223 236 182 254 q 142 273 114 304 q 87 336 73 378 q 59 421 59 469 q 59 517 74 560 q 89 603 118 636 q 146 669 188 688 q 229 707 282 707 q 357 707 406 678 q 454 649 483 602 q 512 556 524 498 q 535 439 535 380 q 535 339 532 294 q 528 249 518 205 q 509 161 492 121 q 475 81 448 51 q 420 21 381 3 q 342 -15 288 -15 q 246 -15 208 -1 q 169 13 140 38 q 111 63 94 98 q 77 134 77 177 l 162 177 q 162 127 192 95 q 223 63 285 63 q 333 63 364 86 q 394 109 412 146 q 430 182 437 227 q 444 272 446 316 z m 292 629 q 257 629 230 617 q 203 605 184 584 q 166 563 156 534 q 147 505 147 472 q 147 440 154 410 q 162 381 178 358 q 194 336 219 322 q 244 309 279 309 q 316 309 346 322 q 375 335 394 358 q 414 380 424 411 q 435 442 435 477 q 435 507 424 534 q 414 562 395 583 q 376 604 350 616 q 323 629 292 629 z"}," ":{"x_min":0,"x_max":319,"ha":319,"o":""},"I":{"x_min":0,"x_max":318,"ha":318,"o":"m 122 0 l 122 725 l 200 725 l 200 0 z"},"H":{"x_min":0,"x_max":757,"ha":757,"o":"m 568 0 l 568 338 l 197 338 l 197 0 l 118 0 l 118 722 l 197 722 l 197 411 l 568 411 l 568 722 l 647 722 l 647 0 z"},"4":{"x_min":0,"x_max":584,"ha":584,"o":"m 436 156 l 436 0 l 352 0 l 352 156 l 34 156 l 34 230 l 336 692 l 436 692 l 436 228 l 545 228 l 545 156 z m 352 589 l 116 228 l 352 228 z"},"~":{"x_min":0,"x_max":693,"ha":693,"o":"m 458 189 q 443 189 425 193 q 407 197 388 202 q 370 208 352 214 q 335 221 322 227 q 304 234 283 244 q 262 254 243 254 q 225 254 210 244 q 194 235 181 221 q 168 207 158 191 q 147 175 138 161 l 93 220 q 107 239 122 257 q 138 275 156 290 q 174 304 196 312 q 217 321 243 321 q 273 321 302 311 q 331 301 358 288 q 386 276 411 266 q 436 256 459 256 q 475 256 489 264 q 503 273 515 286 q 527 298 536 312 q 546 327 553 339 l 608 297 q 595 276 580 256 q 565 237 546 222 q 528 207 506 198 q 484 189 458 189 z"},"D":{"x_min":0,"x_max":755,"ha":755,"o":"m 309 0 l 110 0 l 110 722 l 309 722 q 485 722 583 632 q 681 541 681 361 q 681 181 583 90 q 485 0 309 0 z m 281 649 l 189 649 l 189 73 l 324 73 q 464 73 530 148 q 597 224 597 361 q 597 437 575 492 q 553 547 512 582 q 471 616 412 632 q 354 649 281 649 z"},"^":{"x_min":0,"x_max":692,"ha":692,"o":"m 540 239 l 349 603 l 162 239 l 83 239 l 318 692 l 381 692 l 618 239 z"},"0":{"x_min":0,"x_max":586,"ha":586,"o":"m 296 -15 q 245 -15 208 2 q 171 18 144 46 q 118 73 102 110 q 86 147 76 187 q 67 227 64 268 q 61 309 61 346 q 61 383 64 424 q 67 465 76 505 q 86 545 102 582 q 118 619 144 646 q 171 674 208 690 q 245 707 296 707 q 347 707 384 690 q 422 674 448 646 q 474 619 490 582 q 507 545 516 505 q 525 465 528 424 q 532 383 532 346 q 532 290 524 227 q 516 164 490 110 q 465 56 418 20 q 372 -15 296 -15 z m 296 629 q 247 629 218 600 q 189 571 174 528 q 158 486 154 436 q 149 387 149 346 q 149 305 154 256 q 158 206 174 164 q 189 121 218 92 q 247 63 296 63 q 345 63 374 92 q 403 121 418 164 q 434 206 438 256 q 443 305 443 346 q 443 387 438 436 q 434 486 418 528 q 403 571 374 600 q 345 629 296 629 z"},"F":{"x_min":0,"x_max":590,"ha":590,"o":"m 191 649 l 191 413 l 516 413 l 516 340 l 191 340 l 191 0 l 113 0 l 113 722 l 527 722 l 527 649 z"},"`":{"x_min":0,"x_max":311,"ha":311,"o":"m 158 564 l 16 707 l 122 707 l 224 564 z"},"k":{"x_min":0,"x_max":517,"ha":517,"o":"m 420 0 l 179 232 l 179 0 l 100 0 l 100 722 l 179 722 l 179 302 l 399 508 l 508 508 l 245 267 l 527 0 z"},"u":{"x_min":0,"x_max":590,"ha":590,"o":"m 423 53 q 397 21 358 3 q 319 -15 277 -15 q 230 -15 196 2 q 161 18 138 46 q 116 74 105 112 q 94 149 94 190 l 94 502 l 173 502 l 173 180 q 173 125 204 91 q 236 57 292 57 q 324 57 348 70 q 373 84 390 106 q 406 127 414 156 q 423 184 423 214 l 423 502 l 502 502 l 502 -1 l 423 -1 z"},"]":{"x_min":0,"x_max":313,"ha":313,"o":"m 66 -96 l 66 -28 l 136 -28 l 136 654 l 66 654 l 66 722 l 220 722 l 220 -96 z"},"U":{"x_min":0,"x_max":757,"ha":757,"o":"m 382 -15 q 319 -15 269 4 q 219 24 184 60 q 150 95 132 145 q 113 195 113 257 l 113 722 l 197 722 l 197 258 q 197 215 210 179 q 222 143 246 118 q 269 92 304 78 q 338 63 382 63 q 426 63 460 78 q 495 92 518 118 q 542 143 554 179 q 567 215 567 258 l 567 722 l 651 722 l 651 257 q 651 195 632 145 q 614 95 580 60 q 545 24 495 4 q 445 -15 382 -15 z"},"o":{"x_min":0,"x_max":586,"ha":586,"o":"m 296 -15 q 239 -15 194 8 q 150 30 120 67 q 89 104 73 152 q 57 200 57 251 q 57 302 73 350 q 89 398 120 435 q 150 472 194 494 q 239 517 296 517 q 353 517 398 494 q 442 472 472 435 q 503 398 519 350 q 535 302 535 251 q 535 200 519 152 q 503 104 472 67 q 442 30 398 8 q 353 -15 296 -15 z m 296 445 q 258 445 229 428 q 200 411 180 383 q 161 355 150 320 q 140 286 140 251 q 140 216 150 182 q 161 147 180 119 q 200 91 229 74 q 258 57 296 57 q 333 57 362 74 q 392 91 412 119 q 431 147 442 182 q 452 216 452 251 q 452 286 442 320 q 431 355 412 383 q 392 411 362 428 q 333 445 296 445 z"},"N":{"x_min":0,"x_max":756,"ha":756,"o":"m 575 115 l 575 722 l 654 722 l 654 0 l 562 0 l 189 596 l 189 0 l 111 0 l 111 722 l 195 722 z"},"+":{"x_min":0,"x_max":700,"ha":700,"o":"m 389 213 l 389 0 l 311 0 l 311 213 l 95 213 l 95 289 l 311 289 l 311 502 l 389 502 l 389 289 l 605 289 l 605 213 z"},"G":{"x_min":0,"x_max":754,"ha":754,"o":"m 440 -19 q 343 -19 275 6 q 207 31 164 79 q 121 127 101 198 q 81 269 81 361 q 81 428 100 496 q 118 563 156 616 q 194 670 252 704 q 311 737 391 737 q 435 737 479 724 q 523 712 559 686 q 595 661 619 622 q 643 584 648 533 l 560 533 q 556 566 540 590 q 525 615 502 631 q 479 647 450 655 q 421 663 391 663 q 330 663 287 636 q 244 608 217 564 q 190 521 178 467 q 165 413 165 361 q 165 289 180 232 q 194 175 227 136 q 260 96 313 75 q 366 54 442 54 q 474 54 506 58 q 539 61 571 66 l 571 333 l 367 333 l 367 407 l 647 407 l 647 1 q 593 -8 542 -14 q 491 -19 440 -19 z"},"q":{"x_min":0,"x_max":587,"ha":587,"o":"m 431 448 l 431 502 l 510 502 l 510 -191 l 431 -191 l 431 54 q 369 -20 274 -20 q 221 -20 180 4 q 140 27 113 66 q 86 104 72 153 q 58 202 58 252 q 58 301 72 348 q 85 396 112 434 q 139 471 180 494 q 220 517 274 517 q 320 517 361 499 q 402 481 431 448 z m 274 444 q 242 444 217 428 q 192 412 176 385 q 159 358 150 323 q 141 288 141 250 q 140 212 150 176 q 159 141 176 114 q 193 86 218 70 q 243 53 274 53 q 312 53 342 70 q 371 86 392 114 q 412 141 422 176 q 433 212 433 250 q 433 287 422 322 q 412 357 392 384 q 371 411 342 428 q 312 444 274 444 z"},"d":{"x_min":0,"x_max":587,"ha":587,"o":"m 431 452 l 431 722 l 510 722 l 510 0 l 431 0 l 431 59 q 400 24 360 4 q 319 -15 270 -15 q 212 -15 172 10 q 132 34 106 73 q 81 112 70 160 q 58 209 58 256 q 58 304 70 352 q 81 399 106 437 q 131 475 172 498 q 212 522 270 522 q 315 522 358 504 q 402 487 431 452 z m 280 449 q 242 449 216 433 q 189 417 172 390 q 156 364 149 330 q 142 297 142 262 q 142 228 148 192 q 154 156 168 126 q 183 96 208 77 q 233 58 271 58 q 316 58 346 75 q 377 92 395 120 q 413 149 421 186 q 429 224 429 265 q 429 302 420 335 q 412 368 394 394 q 375 419 347 434 q 319 449 280 449 z"},"1":{"x_min":0,"x_max":586,"ha":586,"o":"m 273 0 l 273 594 l 120 473 l 120 571 l 282 692 l 357 692 l 357 0 z"},"5":{"x_min":0,"x_max":587,"ha":587,"o":"m 175 405 q 203 431 238 446 q 273 462 316 462 q 367 462 407 443 q 447 424 475 392 q 503 359 518 316 q 533 274 533 228 q 533 178 517 134 q 501 90 472 57 q 442 24 400 4 q 358 -15 305 -15 q 261 -15 220 -4 q 180 6 148 30 q 116 54 96 92 q 76 130 75 184 l 164 184 q 165 153 176 130 q 187 107 205 92 q 223 77 247 70 q 271 63 298 63 q 335 63 362 76 q 390 89 408 112 q 426 134 435 165 q 444 196 444 231 q 444 301 409 343 q 374 385 302 385 q 255 385 220 358 q 184 332 173 283 l 89 283 l 89 692 l 498 692 l 498 614 l 175 614 z"}}}
